<svg width="512" height="512" viewBox="0 0 512 512" fill="none" xmlns="http://www.w3.org/2000/svg">
<path opacity="0.4" d="M319.903 251.235L352.945 197.08C355.755 192.556 360.691 189.745 366.038 189.745C371.385 189.745 376.321 192.556 379.131 197.08L469.618 345.356C473.594 351.937 475.719 359.477 475.719 367.155C475.719 390.325 456.937 409.039 433.835 409.039H349.654C370.837 409.039 387.974 391.902 387.974 370.719C387.974 363.522 385.918 356.461 382.079 350.36C361.308 317.318 340.606 284.277 319.903 251.235Z" fill="#DC7D4A"/>
<path d="M75.3199 409.108H349.661C370.843 409.108 387.981 391.97 387.981 370.788C387.981 363.59 385.924 356.529 382.085 350.428L233.604 113.654C229.08 106.387 221.059 102 212.49 102C203.921 102 195.97 106.387 191.377 113.654L42.8954 350.428C39.0565 356.529 37 363.59 37 370.788C37 391.97 54.1377 409.108 75.3199 409.108Z" fill="#DC7D4A"/>
</svg>
