<svg width="32" height="32" viewBox="0 0 32 32" fill="none" xmlns="http://www.w3.org/2000/svg">
<path opacity="0.4" d="M0 8.99053V12.9864C0 16.8511 3.12799 19.9791 6.99272 19.9791H9.98959V13.9853H6.99272C6.44329 13.9853 5.99376 13.5358 5.99376 12.9864V8.99053C5.99376 7.336 4.6514 5.99365 2.99688 5.99365C1.34235 5.99365 0 7.336 0 8.99053ZM21.9771 21.977V27.9708H24.974C28.8387 27.9708 31.9667 24.8428 31.9667 20.978V16.9822C31.9667 15.3277 30.6243 13.9853 28.9698 13.9853C27.3153 13.9853 25.9729 15.3277 25.9729 16.9822V20.978C25.9729 21.5275 25.5234 21.977 24.974 21.977H21.9771Z" fill="#EAE5DC"/>
<path d="M9.98975 5.99376C9.98975 2.6847 12.6744 0 15.9835 0C19.2926 0 21.9773 2.6847 21.9773 5.99376V28.9698C21.9773 30.6243 20.6349 31.9667 18.9804 31.9667H12.9866C11.3321 31.9667 9.98975 30.6243 9.98975 28.9698V5.99376ZM14.9845 9.98959C14.9845 9.72465 14.8793 9.47056 14.692 9.28322C14.5046 9.09588 14.2505 8.99063 13.9856 8.99063C13.7206 8.99063 13.4666 9.09588 13.2792 9.28322C13.0919 9.47056 12.9866 9.72465 12.9866 9.98959C12.9866 10.2545 13.0919 10.5086 13.2792 10.696C13.4666 10.8833 13.7206 10.9886 13.9856 10.9886C14.2505 10.9886 14.5046 10.8833 14.692 10.696C14.8793 10.5086 14.9845 10.2545 14.9845 9.98959ZM17.9814 24.974C18.2464 24.974 18.5005 24.8687 18.6878 24.6814C18.8751 24.4941 18.9804 24.24 18.9804 23.975C18.9804 23.7101 18.8751 23.456 18.6878 23.2687C18.5005 23.0813 18.2464 22.9761 17.9814 22.9761C17.7165 22.9761 17.4624 23.0813 17.275 23.2687C17.0877 23.456 16.9825 23.7101 16.9825 23.975C16.9825 24.24 17.0877 24.4941 17.275 24.6814C17.4624 24.8687 17.7165 24.974 17.9814 24.974Z" fill="#F3F0EC"/>
</svg>
