<svg width="20" height="20" viewBox="0 0 20 20" fill="none" xmlns="http://www.w3.org/2000/svg">
<path d="M18.2942 19.7089C18.6823 20.097 19.3208 20.097 19.7089 19.7089C20.097 19.3208 20.097 18.6823 19.7089 18.2942L11.4147 10L19.7089 1.70579C20.097 1.31768 20.097 0.679186 19.7089 0.29108C19.3208 -0.0970266 18.6823 -0.0970266 18.2942 0.29108L10 8.58529L1.71205 0.29108C1.32394 -0.0970266 0.685446 -0.0970266 0.297339 0.29108C-0.0907669 0.679186 -0.0907669 1.31768 0.297339 1.70579L8.58529 10L0.29108 18.2942C-0.0970266 18.6823 -0.0970266 19.3208 0.29108 19.7089C0.679186 20.097 1.31768 20.097 1.70579 19.7089L10 11.4147L18.2942 19.7089Z" fill="#262626"/>
</svg>
