<svg width="15" height="17" viewBox="0 0 15 17" fill="none" xmlns="http://www.w3.org/2000/svg">
<path d="M6.30158 1.0056H8.70559C8.87843 1.0056 9.0387 1.09359 9.13297 1.24129L9.61377 2.0112H5.39654L5.87734 1.24129C5.96847 1.09359 6.13188 1.0056 6.30472 1.0056H6.30158ZM10.8016 2.0112L9.98773 0.710205C9.71119 0.267113 9.22725 0 8.70873 0H6.30158C5.78306 0 5.29912 0.267113 5.02258 0.710205L4.20867 2.0112H2.97995H1.97435H1.47155C1.19501 2.0112 0.96875 2.23746 0.96875 2.514C0.96875 2.79054 1.19501 3.0168 1.47155 3.0168H1.97435V13.5756C1.97435 14.9646 3.09937 16.0896 4.48835 16.0896H10.522C11.9109 16.0896 13.036 14.9646 13.036 13.5756V3.0168H13.5388C13.8153 3.0168 14.0416 2.79054 14.0416 2.514C14.0416 2.23746 13.8153 2.0112 13.5388 2.0112H13.036H12.0304H10.8016ZM12.0304 3.0168V13.5756C12.0304 14.4084 11.3547 15.084 10.522 15.084H4.48835C3.65559 15.084 2.97995 14.4084 2.97995 13.5756V3.0168H12.0304ZM5.99675 5.028C5.72021 5.028 5.49395 5.25426 5.49395 5.5308V12.57C5.49395 12.8465 5.72021 13.0728 5.99675 13.0728C6.27329 13.0728 6.49955 12.8465 6.49955 12.57V5.5308C6.49955 5.25426 6.27329 5.028 5.99675 5.028ZM9.01356 5.028C8.73702 5.028 8.51076 5.25426 8.51076 5.5308V12.57C8.51076 12.8465 8.73702 13.0728 9.01356 13.0728C9.2901 13.0728 9.51636 12.8465 9.51636 12.57V5.5308C9.51636 5.25426 9.2901 5.028 9.01356 5.028Z" fill="#262626"/>
</svg>
