<svg width="22" height="16" viewBox="0 0 22 16" fill="none" xmlns="http://www.w3.org/2000/svg">
<path d="M0.891012 0.105562C0.653824 -0.0631879 0.306637 -0.025688 0.117574 0.189937C-0.0714881 0.405562 -0.0268006 0.721187 0.210387 0.893062L21.1104 15.8931C21.3476 16.0649 21.6948 16.0274 21.8838 15.8118C22.0729 15.5962 22.0316 15.2806 21.7944 15.1087L0.891012 0.105562ZM20.8148 8.38369C20.9282 8.13681 20.9282 7.86181 20.8148 7.61494C20.3026 6.49931 19.2266 4.87431 17.6179 3.51806C16.0023 2.14931 13.7782 0.999312 11.0007 0.999312C9.2407 0.999312 7.7007 1.46181 6.39789 2.14931L7.33632 2.82119C8.40882 2.31806 9.63258 1.99931 11.0007 1.99931C13.4207 1.99931 15.3904 2.99931 16.872 4.24931C18.3535 5.49931 19.3435 6.99931 19.8007 7.99931C19.4844 8.68994 18.9104 9.62431 18.0991 10.5462L18.9619 11.1649C19.8419 10.1649 20.4641 9.15244 20.8148 8.38369ZM3.03945 4.83369C2.15945 5.83369 1.53726 6.84619 1.18664 7.61494C1.0732 7.86181 1.0732 8.13681 1.18664 8.38369C1.69882 9.49931 2.77476 11.1243 4.38351 12.4806C5.99914 13.8493 8.2232 14.9993 11.0007 14.9993C12.7607 14.9993 14.3007 14.5368 15.6035 13.8493L14.6651 13.1774C13.5926 13.6806 12.3688 13.9993 11.0007 13.9993C8.5807 13.9993 6.61101 12.9993 5.12945 11.7493C3.64789 10.4993 2.65789 8.99931 2.2007 7.99931C2.51695 7.30869 3.09101 6.37431 3.90226 5.45244L3.03945 4.83369ZM11.0007 11.9993C11.5748 11.9993 12.1248 11.8993 12.6301 11.7149L11.5679 10.9524C11.3823 10.9806 11.1932 10.9962 11.0007 10.9962C9.24757 10.9962 7.8107 9.75244 7.70757 8.18056L6.64539 7.41806C6.61445 7.60556 6.6007 7.79931 6.6007 7.99619C6.6007 10.2056 8.57039 11.9962 11.0007 11.9962V11.9993ZM15.4007 7.99931C15.4007 5.78994 13.431 3.99931 11.0007 3.99931C10.4266 3.99931 9.87664 4.09931 9.37133 4.28369L10.4335 5.04619C10.6191 5.01806 10.8082 5.00244 11.0007 5.00244C12.7538 5.00244 14.1907 6.24619 14.2938 7.81806L15.356 8.58056C15.387 8.39306 15.4007 8.19931 15.4007 8.00244V7.99931Z" fill="#262626"/>
</svg>
