<svg width="16" height="17" viewBox="0 0 16 17" fill="none" xmlns="http://www.w3.org/2000/svg">
<path d="M14.2858 1.4283L14.6661 1.80854C15.0589 2.20136 15.0589 2.83928 14.6661 3.2321L13.827 4.07114L12.0232 2.26735L12.8623 1.4283C13.2551 1.03549 13.893 1.03549 14.2858 1.4283ZM5.93933 8.35123L11.313 2.97755L13.1168 4.78135L7.74312 10.155C7.61114 10.287 7.44145 10.3813 7.25918 10.4253L5.1977 10.8998L5.67222 8.83518C5.71307 8.65291 5.80734 8.48322 5.94247 8.35123H5.93933ZM12.1521 0.714952L5.22912 7.64103C4.96201 7.90814 4.7766 8.24439 4.69176 8.61206L4.03497 11.4592C3.99726 11.6289 4.04754 11.8048 4.1701 11.9274C4.29266 12.05 4.46864 12.1002 4.63833 12.0625L7.48544 11.4057C7.85311 11.3209 8.18936 11.1355 8.45647 10.8684L15.3794 3.9423C16.165 3.15668 16.165 1.88396 15.3794 1.09834L14.9992 0.714952C14.2135 -0.070674 12.9408 -0.070674 12.1552 0.714952H12.1521ZM2.514 2.01595C1.12502 2.01595 0 3.14096 0 4.52995V13.5804C0 14.9693 1.12502 16.0944 2.514 16.0944H11.5644C12.9534 16.0944 14.0784 14.9693 14.0784 13.5804V9.55795C14.0784 9.28141 13.8521 9.05515 13.5756 9.05515C13.2991 9.05515 13.0728 9.28141 13.0728 9.55795V13.5804C13.0728 14.4131 12.3972 15.0888 11.5644 15.0888H2.514C1.68124 15.0888 1.0056 14.4131 1.0056 13.5804V4.52995C1.0056 3.69719 1.68124 3.02155 2.514 3.02155H6.5364C6.81294 3.02155 7.0392 2.79529 7.0392 2.51875C7.0392 2.24221 6.81294 2.01595 6.5364 2.01595H2.514Z" fill="#262626"/>
</svg>
