<svg width="76" height="76" viewBox="0 0 76 76" fill="none" xmlns="http://www.w3.org/2000/svg">
<rect width="76" height="76" rx="38" fill="#DC7D4A"/>
<path opacity="0.4" d="M13.1533 38C13.1533 51.7236 24.1979 62.8461 37.8254 62.8461C49.9205 62.8461 59.9821 54.082 62.0927 42.5227C59.6351 41.6978 57.1679 40.8728 54.7104 40.0478C53.7852 39.7373 53.0623 39.0093 52.7636 38.0873C52.195 36.3791 51.6264 34.671 51.0674 32.9531C50.5566 31.4196 51.3083 29.7503 52.7829 29.1194C55.038 28.1489 57.2932 27.1686 59.5484 26.198C55.3657 18.4239 47.2027 13.1538 37.8254 13.1538C37.3532 13.1538 36.8906 13.1635 36.4183 13.1926C37.3243 14.8814 38.2302 16.5702 39.1265 18.2686C39.7336 19.3945 39.5794 20.7921 38.7506 21.7626C38.2302 22.3741 37.7194 22.9758 37.199 23.5873C36.2159 24.7422 36.2063 26.431 37.1701 27.5956C37.6037 28.1197 38.0374 28.6438 38.4808 29.1776C39.0012 29.8085 39.0494 30.7111 38.5964 31.3905C38.1338 32.0893 37.2664 32.3805 36.4858 32.1184L34.2595 31.3711C33.5849 31.1479 32.8428 31.1964 32.2067 31.5167C32.014 31.6137 31.8212 31.7108 31.6381 31.8078C30.7707 32.2446 30.3563 33.2637 30.6551 34.1857C30.8093 34.6418 31.1177 35.0301 31.5417 35.2727C32.65 35.9133 33.7584 36.5538 34.8667 37.1847C35.8015 37.7185 36.852 38 37.9314 38C39.3192 38 40.6974 38 42.0852 38C43.3092 38 44.4849 38.4949 45.3523 39.3684C45.4776 39.4946 45.6029 39.6208 45.7282 39.747C46.5956 40.6205 47.0871 41.8045 47.0871 43.0371V43.8427C47.0871 45.512 46.2004 47.0552 44.7548 47.8899L43.9741 48.3363C42.5189 49.1807 41.4588 50.5783 41.054 52.2186C40.9672 52.5777 40.8709 52.9465 40.7841 53.3056C40.389 54.8876 39.1939 56.1299 37.6327 56.586C36.187 57.0034 34.751 55.9067 34.751 54.3926C34.751 53.1309 34.751 51.8692 34.751 50.6074C34.751 50.5201 34.751 50.4619 34.7414 50.4133C34.7414 50.3454 34.7318 50.2872 34.7221 50.2192C34.7028 50.093 34.6739 49.9572 34.645 49.8407C34.5776 49.5884 34.4715 49.3554 34.3366 49.1419C34.0668 48.7052 33.6813 48.3461 33.209 48.1034C32.2645 47.6278 31.667 46.6573 31.667 45.5897C31.667 44.2989 31.667 43.008 31.667 41.7172C31.667 41.7075 31.667 41.6978 31.667 41.6881C31.667 41.6589 31.667 41.6104 31.667 41.5619C31.667 41.5037 31.6574 41.4551 31.6574 41.4066C31.6477 41.2998 31.6381 41.1931 31.6188 41.0863C31.5803 40.8728 31.5321 40.6787 31.4646 40.4749C31.3297 40.0769 31.137 39.7178 30.896 39.3879C30.4045 38.7279 29.701 38.2329 28.8818 37.9903L23.0607 36.3209C21.6536 35.9133 20.4393 35.0204 19.6201 33.7975L15.4567 27.4986C13.9821 30.6917 13.1533 34.2536 13.1533 38Z" fill="#EAE5DC"/>
<path d="M36.5521 13.1538C27.1723 13.6802 19.1825 19.4212 15.4111 27.521L19.6004 33.8176C20.4169 35.0458 21.6514 35.9522 23.0705 36.3519L28.9316 38.0381C30.6035 38.5157 31.7504 40.046 31.7504 41.7908V45.6798C31.7504 46.752 32.3531 47.7267 33.3056 48.2043C34.2582 48.6819 34.8608 49.6566 34.8608 50.7288V54.5302C34.8608 56.0507 36.3091 57.1522 37.7671 56.733C39.332 56.2847 40.547 55.0273 40.9456 53.4385L41.2177 52.3468C41.626 50.6996 42.6952 49.2863 44.1629 48.448L44.9502 47.9996C46.4082 47.1711 47.3024 45.6116 47.3024 43.9351V43.1261C47.3024 41.8882 46.8067 40.6991 45.9319 39.8218L45.5528 39.4417C44.678 38.5645 43.4922 38.0674 42.2578 38.0674H38.0684C36.9895 38.0674 35.9203 37.7847 34.9775 37.2486L31.6241 35.3284C31.2061 35.0848 30.8854 34.6949 30.7298 34.2368C30.4188 33.301 30.8368 32.2873 31.7213 31.8487L32.2948 31.5563C32.9363 31.2347 33.6847 31.1762 34.3651 31.4101L36.6202 32.1606C37.4172 32.4238 38.292 32.1216 38.7488 31.4296C39.2057 30.7473 39.1571 29.8408 38.6322 29.2073L37.3103 27.6185C36.3383 26.4488 36.348 24.7431 37.3394 23.5929L38.9044 21.7605C39.7403 20.7858 39.8958 19.3919 39.2834 18.2515L36.5521 13.1538ZM59.8704 26.2052L53.0469 29.139C51.5598 29.7823 50.8113 31.4491 51.3168 32.9891L53.0275 38.1453C53.3385 39.0811 54.0675 39.8121 54.9909 40.1143L62.4365 42.5998C62.7086 41.1279 62.8447 39.6074 62.8447 38.0576C62.8447 33.7689 61.7658 29.7239 59.8607 26.1954L59.8704 26.2052Z" fill="#F3F0EC"/>
</svg>
