<svg width="49" height="34" viewBox="0 0 49 34" fill="none" xmlns="http://www.w3.org/2000/svg">
<path opacity="0.4" d="M31.3206 16.5219L34.9787 10.5264C35.2898 10.0255 35.8363 9.71436 36.4282 9.71436C37.0202 9.71436 37.5666 10.0255 37.8778 10.5264L47.8956 26.942C48.3358 27.6706 48.5711 28.5054 48.5711 29.3554C48.5711 31.9206 46.4916 33.9925 43.934 33.9925H34.6144C36.9595 33.9925 38.8568 32.0952 38.8568 29.7501C38.8568 28.9532 38.6291 28.1715 38.2041 27.4961C35.9046 23.838 33.6126 20.18 31.3206 16.5219Z" fill="#EAE5DC"/>
<path d="M4.24241 34H34.6147C36.9598 34 38.8571 32.1027 38.8571 29.7576C38.8571 28.9607 38.6295 28.179 38.2045 27.5036L21.7661 1.29018C21.2652 0.485714 20.3772 0 19.4286 0C18.4799 0 17.5996 0.485714 17.0911 1.29018L0.652679 27.5036C0.227679 28.179 0 28.9607 0 29.7576C0 32.1027 1.89732 34 4.24241 34Z" fill="#F3F0EC"/>
</svg>
