<svg width="29" height="33" viewBox="0 0 29 33" fill="none" xmlns="http://www.w3.org/2000/svg">
<path opacity="0.4" d="M0 26.6614C0 27.4779 0.659469 28.1374 1.47596 28.1374H12.0589V14.0687C12.0589 14.031 12.0589 13.9996 12.0589 13.9682C12.0589 13.9368 12.0651 13.8991 12.0651 13.8677C12.0714 13.7986 12.084 13.7358 12.0966 13.6667C12.1217 13.5348 12.1656 13.4092 12.2159 13.2899C12.3164 13.0512 12.4671 12.8314 12.6492 12.6492C13.0135 12.285 13.516 12.0589 14.0687 12.0589C15.1804 12.0589 16.0785 12.957 16.0785 14.0687C16.0785 18.7603 16.0785 23.4457 16.0785 28.1374H26.6614C27.4779 28.1374 28.1374 27.4779 28.1374 26.6614C28.1374 26.316 28.018 25.9831 27.7982 25.7193L23.1128 20.0981H25.2106C25.9957 20.0981 26.63 19.4638 26.63 18.6787C26.63 18.3018 26.4793 17.9376 26.2155 17.6738L21.6055 13.0638H23.1694C23.967 13.0638 24.6202 12.4169 24.6202 11.6129C24.6202 11.2549 24.4883 10.9032 24.2433 10.6394L14.9103 0.370559C14.6967 0.131894 14.389 0 14.0687 0C13.7484 0 13.4406 0.131894 13.2271 0.370559L3.89401 10.6394C3.64906 10.9032 3.51717 11.2549 3.51717 11.6129C3.51717 12.4169 4.16408 13.0638 4.968 13.0638H6.53189L1.92188 17.6738C1.65809 17.9376 1.50736 18.3018 1.50736 18.6787C1.50736 19.4638 2.14171 20.0981 2.92679 20.0981H5.02453L0.339156 25.7193C0.119333 25.9831 0 26.316 0 26.6614Z" fill="#EAE5DC"/>
<path d="M14.0689 12.0588C15.1806 12.0588 16.0787 12.957 16.0787 14.0686V30.1471C16.0787 31.2588 15.1806 32.1569 14.0689 32.1569C12.9572 32.1569 12.0591 31.2588 12.0591 30.1471V14.0686C12.0591 12.957 12.9572 12.0588 14.0689 12.0588Z" fill="#F3F0EC"/>
</svg>
