<svg width="29" height="23" viewBox="0 0 29 23" fill="none" xmlns="http://www.w3.org/2000/svg">
<path d="M0 1.5C0 0.66875 0.692634 0 1.55357 0H27.4464C28.3074 0 29 0.66875 29 1.5C29 2.33125 28.3074 3 27.4464 3H1.55357C0.692634 3 0 2.33125 0 1.5ZM0 11.5C0 10.6687 0.692634 10 1.55357 10H27.4464C28.3074 10 29 10.6687 29 11.5C29 12.3313 28.3074 13 27.4464 13H1.55357C0.692634 13 0 12.3313 0 11.5ZM29 21.5C29 22.3312 28.3074 23 27.4464 23H1.55357C0.692634 23 0 22.3312 0 21.5C0 20.6688 0.692634 20 1.55357 20H27.4464C28.3074 20 29 20.6688 29 21.5Z" fill="#F3F0EC"/>
</svg>
