<svg width="20" height="24" viewBox="0 0 20 24" fill="none" xmlns="http://www.w3.org/2000/svg">
<path d="M14.2857 6C14.2857 5.40905 14.1749 4.82389 13.9595 4.27792C13.7441 3.73196 13.4284 3.23588 13.0305 2.81802C12.6325 2.40016 12.16 2.06869 11.6401 1.84254C11.1201 1.6164 10.5628 1.5 10 1.5C9.43719 1.5 8.8799 1.6164 8.35993 1.84254C7.83996 2.06869 7.36751 2.40016 6.96954 2.81802C6.57158 3.23588 6.25589 3.73196 6.04052 4.27792C5.82514 4.82389 5.71429 5.40905 5.71429 6C5.71429 6.59095 5.82514 7.17611 6.04052 7.72208C6.25589 8.26804 6.57158 8.76412 6.96954 9.18198C7.36751 9.59984 7.83996 9.93131 8.35993 10.1575C8.8799 10.3836 9.43719 10.5 10 10.5C10.5628 10.5 11.1201 10.3836 11.6401 10.1575C12.16 9.93131 12.6325 9.59984 13.0305 9.18198C13.4284 8.76412 13.7441 8.26804 13.9595 7.72208C14.1749 7.17611 14.2857 6.59095 14.2857 6ZM4.28571 6C4.28571 4.4087 4.88775 2.88258 5.95939 1.75736C7.03103 0.632141 8.48448 0 10 0C11.5155 0 12.969 0.632141 14.0406 1.75736C15.1122 2.88258 15.7143 4.4087 15.7143 6C15.7143 7.5913 15.1122 9.11742 14.0406 10.2426C12.969 11.3679 11.5155 12 10 12C8.48448 12 7.03103 11.3679 5.95939 10.2426C4.88775 9.11742 4.28571 7.5913 4.28571 6ZM1.42857 22.5H18.5714C18.5179 18.7641 15.6161 15.75 12.0402 15.75H7.95982C4.38839 15.75 1.48661 18.7641 1.42857 22.5ZM0 22.6078C0 17.9906 3.5625 14.25 7.95982 14.25H12.0402C16.4375 14.25 20 17.9906 20 22.6078C20 23.3766 19.4062 24 18.6741 24H1.32589C0.59375 24 0 23.3766 0 22.6078Z" fill="#F3F0EC"/>
</svg>
