<svg width="44" height="30" viewBox="0 0 44 30" fill="none" xmlns="http://www.w3.org/2000/svg">
<path opacity="0.4" d="M0.00317383 15.8919C0.00317383 16.0752 0.0260914 16.2585 0.0642874 16.4495C0.331659 17.5725 1.33239 18.3364 2.44772 18.3364C2.63106 18.3364 2.8144 18.3135 3.00538 18.2753C4.87698 17.8399 6.43538 17.0148 7.45139 16.3655C9.66676 17.5496 12.1495 18.3364 14.6704 18.3364C17.1073 18.3364 19.2998 17.5801 20.8124 16.8926C21.2554 16.6863 21.6603 16.4877 22.0041 16.3044C22.3478 16.4877 22.7451 16.694 23.1958 16.8926C24.7084 17.5801 26.9008 18.3364 29.3377 18.3364C31.8586 18.3364 34.3414 17.5496 36.5568 16.3655C37.5804 17.0072 39.1312 17.8399 41.0028 18.2753C42.3167 18.5809 43.6306 17.7635 43.9362 16.4495C43.9821 16.2662 43.9973 16.0752 43.9973 15.8919C43.9973 14.7842 43.2334 13.7758 42.1105 13.5161C40.7278 13.1952 39.3451 12.5001 38.245 11.591C37.3971 10.8653 36.1595 10.8194 35.2504 11.4611C33.5698 12.6223 31.3927 13.4473 29.3377 13.4473C27.2369 13.4473 25.1361 12.6376 23.4173 11.4535C22.5694 10.85 21.4388 10.85 20.5908 11.4535C18.872 12.6376 16.7712 13.4473 14.6704 13.4473C12.6155 13.4473 10.446 12.6223 8.7577 11.4535C7.84099 10.8042 6.61108 10.8576 5.76313 11.5834C4.66309 12.4924 3.28039 13.1876 1.8977 13.5084C0.767094 13.7758 0.00317383 14.7765 0.00317383 15.8919Z" fill="#EAE5DC"/>
<path d="M23.4171 0.453004C22.5691 -0.150493 21.4385 -0.150493 20.5906 0.453004C18.8717 1.63708 16.771 2.44683 14.6702 2.44683C12.6152 2.44683 10.4457 1.6218 8.75745 0.453004C7.84838 -0.196328 6.61083 -0.142854 5.76288 0.58287C4.66283 1.49193 3.2725 2.1871 1.8898 2.50795C0.575862 2.81352 -0.241532 4.12746 0.0640357 5.4414C0.369604 6.75534 1.68355 7.57274 2.99749 7.26717C4.86909 6.83174 6.42749 6.0067 7.4435 5.35737C9.66651 6.54909 12.1493 7.33592 14.6702 7.33592C17.1071 7.33592 19.2995 6.57964 20.8121 5.89211C21.2552 5.68586 21.6601 5.48724 22.0038 5.30389C22.3476 5.48724 22.7448 5.6935 23.1955 5.89211C24.7081 6.57964 26.9005 7.33592 29.3375 7.33592C31.8584 7.33592 34.3411 6.54908 36.5565 5.36501C37.5801 6.0067 39.1309 6.83937 41.0025 7.27481C42.3165 7.58038 43.6304 6.76298 43.936 5.44904C44.2415 4.1351 43.4241 2.82116 42.1102 2.51559C40.7275 2.19474 39.3448 1.49957 38.2448 0.590509C37.3968 -0.135215 36.1593 -0.18105 35.2502 0.460643C33.5696 1.6218 31.3924 2.44683 29.3375 2.44683C27.2367 2.44683 25.1359 1.63708 23.4171 0.453004ZM29.3375 24.4477C27.2367 24.4477 25.1359 23.638 23.4171 22.4539C22.5691 21.8504 21.4385 21.8504 20.5906 22.4539C18.8717 23.638 16.771 24.4477 14.6702 24.4477C12.6152 24.4477 10.4457 23.6227 8.75745 22.4539C7.84838 21.8046 6.61083 21.858 5.76288 22.5838C4.66283 23.4928 3.28014 24.188 1.89744 24.5088C0.583501 24.8144 -0.233893 26.1284 0.0716749 27.4423C0.377243 28.7562 1.69119 29.5736 3.00513 29.2681C4.87673 28.8326 6.43513 28.0076 7.45114 27.3583C9.66651 28.55 12.1493 29.3368 14.6702 29.3368C17.1071 29.3368 19.2995 28.5805 20.8121 27.893C21.2552 27.6868 21.6601 27.4881 22.0038 27.3048C22.3476 27.4881 22.7448 27.6944 23.1955 27.893C24.7081 28.5805 26.9005 29.3368 29.3375 29.3368C31.8584 29.3368 34.3411 28.55 36.5565 27.3659C37.5801 28.0076 39.1309 28.8403 41.0025 29.2757C42.3165 29.5813 43.6304 28.7639 43.936 27.4499C44.2415 26.136 43.4241 24.8221 42.1102 24.5165C40.7275 24.1956 39.3448 23.5005 38.2448 22.5914C37.3968 21.8733 36.1593 21.8198 35.2502 22.4615C33.5696 23.6227 31.3924 24.4477 29.3375 24.4477Z" fill="#F3F0EC"/>
</svg>
