<svg width="130" height="41" viewBox="0 0 130 41" fill="none" xmlns="http://www.w3.org/2000/svg">
<path d="M30.5236 3.94413L31.3979 6.30631L33.7601 7.18058C34.0406 7.28415 34.0406 7.68029 33.7601 7.78472L31.3979 8.65899L30.5236 11.0212C30.42 11.3017 30.0239 11.3017 29.9195 11.0212L29.0452 8.65899L26.683 7.78472C26.4025 7.68115 26.4025 7.28501 26.683 7.18058L29.0452 6.30631L29.9195 3.94413C30.023 3.66364 30.4192 3.66364 30.5236 3.94413Z" fill="#F3F0EC"/>
<path d="M71.3529 12.9717C71.3124 12.4858 71.069 12.4047 70.6236 12.4047C70.1783 12.4047 69.9349 12.4858 69.8944 12.9717L68.9623 22.41C68.9217 22.8959 69.0434 23.0176 69.5699 23.0176H71.6766C72.203 23.0176 72.3247 22.8959 72.2842 22.41L71.3521 12.9717H71.3529Z" fill="#F3F0EC"/>
<path d="M49.1154 10.379H48.0254C47.7544 10.379 47.5352 10.5982 47.5352 10.8692V18.5168C47.5352 18.7878 47.7544 19.007 48.0254 19.007H49.1145C51.0996 19.007 51.9902 18.1966 51.9902 16.1313V13.2556C51.9902 11.1894 51.0987 10.3799 49.1145 10.3799L49.1154 10.379Z" fill="#F3F0EC"/>
<path d="M37.7698 0H0.0198519L0.0120844 0.215763V35.3049L1.67747e-06 39.3863C-0.000861376 39.7971 0.331414 40.1311 0.743091 40.1311H0.983019C1.02876 40.1337 1.07105 40.1354 1.10903 40.1354C2.10758 40.1501 3.12598 40.1242 4.12626 40.1354C7.08481 40.1682 10.0451 40.1466 13.0045 40.1311H37.9234H129.393C129.728 40.1311 130 39.8593 130 39.5244V0.65851C130 0.295164 129.706 0.000863053 129.342 0.000863053H37.7698V0ZM34.926 30.8015C34.8812 30.8015 34.1683 30.704 33.8524 30.3389C33.4597 29.8858 33.004 29.122 32.859 28.8665C30.3087 24.383 28.4462 20.0177 26.0176 15.4323C25.0355 13.5784 23.9221 11.7945 23.0539 9.85521C22.7052 9.07587 22.3557 7.73814 21.333 8.49158C20.3965 9.18116 19.4213 12.4021 18.0922 11.9783C17.9472 11.9317 17.5208 11.3302 17.3862 11.1515C16.1098 9.45561 14.9748 7.38169 13.6311 5.76433C13.5292 5.64178 12.8578 4.91077 12.793 4.85209C12.5799 4.65704 12.2795 4.69846 12.0663 4.90301C11.8014 5.15761 10.7476 6.84574 10.4507 7.29366C7.82531 11.2542 7.03993 12.6791 4.45077 16.6845C3.94674 17.4639 2.82132 18.9708 2.46833 19.9037C2.08686 20.9092 2.31385 21.4866 2.65648 21.9276C3.75256 23.3387 6.66709 22.9512 8.20591 23.0452C9.65498 23.1341 11.1472 23.3637 12.6075 23.4785C13.5845 23.5553 15.4081 23.5009 16.2539 23.8487C17.3362 24.2932 16.8589 25.177 16.1598 25.7647C15.5695 26.261 13.0062 26.8013 13.5094 27.9621C13.8857 28.8303 15.434 28.7241 17.1635 28.8415C18.6497 28.9416 20.6019 28.807 22.2633 29.3196C22.8278 29.494 24.1172 30.3441 24.2717 31.7224C24.679 34.2753 19.5136 37.5644 11.7539 36.9076C8.36558 36.6211 8.30344 35.9237 8.27323 34.9597C8.27323 33.811 9.37017 33.3501 13.0589 33.2025C14.0108 33.1645 14.8739 33.0834 15.6567 32.9721C15.9423 32.9315 16.2056 32.79 16.3911 32.569C16.5197 32.4163 16.625 32.2514 16.6448 32.1487C16.7933 31.359 15.9743 30.8386 15.3572 30.6677C14.4199 30.408 13.1012 30.2578 12.1026 30.0558C10.9677 29.8263 9.67656 29.664 8.55718 29.4068C7.59056 29.185 6.16393 28.2952 7.40414 27.3752C8.04797 26.8971 9.15355 26.8996 10.1279 26.633C10.9038 26.4207 11.1645 25.2702 10.6535 25.0303C9.54106 24.5073 5.76347 24.509 5.76347 24.509C4.39726 24.4969 3.33398 24.7601 2.05838 24.0283C2.0463 24.0214 2.03077 24.011 2.01264 23.9989C1.54746 23.6727 1.27559 23.1143 1.27559 22.524L1.27042 1.89613L1.43785 1.64153H36.4631L36.502 29.1419C36.5037 30.0627 35.7951 30.8084 34.9252 30.8032L34.926 30.8015ZM57.7434 16.9823C57.7434 22.4506 54.948 24.679 48.791 24.679H48.0255C47.7545 24.679 47.5353 24.8982 47.5353 25.1692V33.83C47.5353 34.5256 46.9708 35.09 46.2752 35.09H43.2045C42.5088 35.09 41.9444 34.5256 41.9444 33.83V5.96801C41.9444 5.27239 42.5088 4.70796 43.2045 4.70796H48.7901C54.9472 4.70796 57.7426 6.9355 57.7426 12.4047V16.9823H57.7434ZM77.9976 35.0892H75.2021C73.987 35.0892 73.703 34.8052 73.5416 33.59L73.0152 29.1747C72.9746 28.7699 72.8529 28.6482 72.367 28.6482H68.8829C68.397 28.6482 68.2753 28.7699 68.2347 29.1747L67.7083 33.59C67.546 34.8052 67.2629 35.0892 66.0478 35.0892H63.2523C62.0777 35.0892 61.7532 34.7655 61.9155 33.59L65.4799 6.81381C65.6827 5.31468 66.2497 4.70709 68.0725 4.70709H73.1766C74.9993 4.70709 75.5664 5.31468 75.7692 6.81381L79.3336 33.59C79.4958 34.7646 79.1713 35.0892 77.9967 35.0892H77.9976ZM100.804 35.0892H98.3328C97.1177 35.0892 96.7129 34.7655 96.3884 33.6712L93.391 22.8554C93.3099 22.5317 93.0268 22.4912 92.8645 22.7743L91.1229 25.9745C90.9201 26.3792 90.8795 26.5415 90.8795 27.0274V33.8282C90.8795 34.5239 90.3151 35.0883 89.6195 35.0883H86.5487C85.8531 35.0883 85.2887 34.5239 85.2887 33.8282V5.96801C85.2887 5.27239 85.8531 4.70796 86.5487 4.70796H89.5383C90.2339 4.70796 90.7984 5.27239 90.7984 5.96801V14.8756C90.7984 15.1992 90.9201 15.2804 91.122 15.2804C91.2843 15.2804 91.406 15.2398 91.5268 14.9567L95.6988 6.20708C96.347 4.87021 96.6309 4.70796 98.1697 4.70796H100.681C101.856 4.70796 102.099 5.31555 101.613 6.28734L96.914 15.6446C96.6706 16.0899 96.6706 16.2927 96.8329 16.7786L101.937 33.3872C102.261 34.4807 101.896 35.0883 100.803 35.0883L100.804 35.0892ZM123.487 35.0892H120.692C119.477 35.0892 119.193 34.8052 119.031 33.59L118.505 29.1747C118.464 28.7699 118.343 28.6482 117.857 28.6482H114.373C113.887 28.6482 113.765 28.7699 113.725 29.1747L113.198 33.59C113.036 34.8052 112.753 35.0892 111.538 35.0892H108.742C107.568 35.0892 107.243 34.7655 107.405 33.59L110.97 6.81381C111.172 5.31468 111.74 4.70709 113.562 4.70709H118.666C120.489 4.70709 121.056 5.31468 121.259 6.81381L124.823 33.59C124.986 34.7646 124.661 35.0892 123.487 35.0892H123.487Z" fill="#F3F0EC"/>
<path d="M116.845 12.9717C116.805 12.4858 116.561 12.4047 116.116 12.4047C115.67 12.4047 115.427 12.4858 115.387 12.9717L114.454 22.41C114.414 22.8959 114.536 23.0176 115.062 23.0176H117.169C117.695 23.0176 117.817 22.8959 117.776 22.41L116.844 12.9717H116.845Z" fill="#F3F0EC"/>
</svg>
